<?xml version="1.0" encoding="utf-8" standalone="no"?>
<!DOCTYPE svg PUBLIC "-//W3C//DTD SVG 1.1//EN"
  "http://www.w3.org/Graphics/SVG/1.1/DTD/svg11.dtd">
<svg xmlns:xlink="http://www.w3.org/1999/xlink" width="324.717187pt" height="141.958125pt" viewBox="0 0 324.717187 141.958125" xmlns="http://www.w3.org/2000/svg" version="1.1">
 <metadata>
  <rdf:RDF xmlns:dc="http://purl.org/dc/elements/1.1/" xmlns:cc="http://creativecommons.org/ns#" xmlns:rdf="http://www.w3.org/1999/02/22-rdf-syntax-ns#">
   <cc:Work>
    <dc:type rdf:resource="http://purl.org/dc/dcmitype/StillImage"/>
    <dc:date>2024-07-24T21:47:08.056548</dc:date>
    <dc:format>image/svg+xml</dc:format>
    <dc:creator>
     <cc:Agent>
      <dc:title>Matplotlib v3.9.0, https://matplotlib.org/</dc:title>
     </cc:Agent>
    </dc:creator>
   </cc:Work>
  </rdf:RDF>
 </metadata>
 <defs>
  <style type="text/css">*{stroke-linejoin: round; stroke-linecap: butt}</style>
 </defs>
 <g id="figure_1">
  <g id="patch_1">
   <path d="M 0 141.958125 
L 324.717187 141.958125 
L 324.717187 0 
L 0 0 
L 0 141.958125 
z
" style="fill: none"/>
  </g>
  <g id="axes_1">
   <g id="patch_2">
    <path d="M 38.517188 118.08 
L 317.517187 118.08 
L 317.517187 7.2 
L 38.517188 7.2 
L 38.517188 118.08 
z
" style="fill: none"/>
   </g>
   <g id="patch_3">
    <path d="M 51.199006 118.08 
L 54.267188 118.08 
L 54.267188 118.08 
L 51.199006 118.08 
z
" clip-path="url(#p5805471af6)" style="fill: #008000; opacity: 0.6"/>
   </g>
   <g id="patch_4">
    <path d="M 56.312642 118.08 
L 59.380824 118.08 
L 59.380824 96.96 
L 56.312642 96.96 
z
" clip-path="url(#p5805471af6)" style="fill: #008000; opacity: 0.6"/>
   </g>
   <g id="patch_5">
    <path d="M 61.426278 118.08 
L 64.49446 118.08 
L 64.49446 96.96 
L 61.426278 96.96 
z
" clip-path="url(#p5805471af6)" style="fill: #008000; opacity: 0.6"/>
   </g>
   <g id="patch_6">
    <path d="M 66.539915 118.08 
L 69.608097 118.08 
L 69.608097 96.96 
L 66.539915 96.96 
z
" clip-path="url(#p5805471af6)" style="fill: #008000; opacity: 0.6"/>
   </g>
   <g id="patch_7">
    <path d="M 71.653551 118.08 
L 74.721733 118.08 
L 74.721733 96.96 
L 71.653551 96.96 
z
" clip-path="url(#p5805471af6)" style="fill: #008000; opacity: 0.6"/>
   </g>
   <g id="patch_8">
    <path d="M 76.767188 118.08 
L 79.835369 118.08 
L 79.835369 96.96 
L 76.767188 96.96 
z
" clip-path="url(#p5805471af6)" style="fill: #008000; opacity: 0.6"/>
   </g>
   <g id="patch_9">
    <path d="M 81.880824 118.08 
L 84.949006 118.08 
L 84.949006 96.96 
L 81.880824 96.96 
z
" clip-path="url(#p5805471af6)" style="fill: #008000; opacity: 0.6"/>
   </g>
   <g id="patch_10">
    <path d="M 86.99446 118.08 
L 90.062642 118.08 
L 90.062642 96.96 
L 86.99446 96.96 
z
" clip-path="url(#p5805471af6)" style="fill: #008000; opacity: 0.6"/>
   </g>
   <g id="patch_11">
    <path d="M 92.108097 118.08 
L 95.176278 118.08 
L 95.176278 96.96 
L 92.108097 96.96 
z
" clip-path="url(#p5805471af6)" style="fill: #008000; opacity: 0.6"/>
   </g>
   <g id="patch_12">
    <path d="M 97.221733 118.08 
L 100.289915 118.08 
L 100.289915 96.96 
L 97.221733 96.96 
z
" clip-path="url(#p5805471af6)" style="fill: #008000; opacity: 0.6"/>
   </g>
   <g id="patch_13">
    <path d="M 102.335369 118.08 
L 105.403551 118.08 
L 105.403551 96.96 
L 102.335369 96.96 
z
" clip-path="url(#p5805471af6)" style="fill: #008000; opacity: 0.6"/>
   </g>
   <g id="patch_14">
    <path d="M 107.449006 118.08 
L 110.517188 118.08 
L 110.517188 118.08 
L 107.449006 118.08 
z
" clip-path="url(#p5805471af6)" style="fill: #008000; opacity: 0.6"/>
   </g>
   <g id="patch_15">
    <path d="M 112.562642 118.08 
L 115.630824 118.08 
L 115.630824 118.08 
L 112.562642 118.08 
z
" clip-path="url(#p5805471af6)" style="fill: #008000; opacity: 0.6"/>
   </g>
   <g id="patch_16">
    <path d="M 117.676278 118.08 
L 120.74446 118.08 
L 120.74446 118.08 
L 117.676278 118.08 
z
" clip-path="url(#p5805471af6)" style="fill: #008000; opacity: 0.6"/>
   </g>
   <g id="patch_17">
    <path d="M 122.789915 118.08 
L 125.858097 118.08 
L 125.858097 118.08 
L 122.789915 118.08 
z
" clip-path="url(#p5805471af6)" style="fill: #008000; opacity: 0.6"/>
   </g>
   <g id="patch_18">
    <path d="M 127.903551 118.08 
L 130.971733 118.08 
L 130.971733 118.08 
L 127.903551 118.08 
z
" clip-path="url(#p5805471af6)" style="fill: #008000; opacity: 0.6"/>
   </g>
   <g id="patch_19">
    <path d="M 133.017188 118.08 
L 136.085369 118.08 
L 136.085369 118.08 
L 133.017188 118.08 
z
" clip-path="url(#p5805471af6)" style="fill: #008000; opacity: 0.6"/>
   </g>
   <g id="patch_20">
    <path d="M 138.130824 118.08 
L 141.199006 118.08 
L 141.199006 118.08 
L 138.130824 118.08 
z
" clip-path="url(#p5805471af6)" style="fill: #008000; opacity: 0.6"/>
   </g>
   <g id="patch_21">
    <path d="M 143.24446 118.08 
L 146.312642 118.08 
L 146.312642 118.08 
L 143.24446 118.08 
z
" clip-path="url(#p5805471af6)" style="fill: #008000; opacity: 0.6"/>
   </g>
   <g id="patch_22">
    <path d="M 148.358097 118.08 
L 151.426278 118.08 
L 151.426278 118.08 
L 148.358097 118.08 
z
" clip-path="url(#p5805471af6)" style="fill: #008000; opacity: 0.6"/>
   </g>
   <g id="patch_23">
    <path d="M 153.471733 118.08 
L 156.539915 118.08 
L 156.539915 118.08 
L 153.471733 118.08 
z
" clip-path="url(#p5805471af6)" style="fill: #008000; opacity: 0.6"/>
   </g>
   <g id="patch_24">
    <path d="M 158.585369 118.08 
L 161.653551 118.08 
L 161.653551 96.96 
L 158.585369 96.96 
z
" clip-path="url(#p5805471af6)" style="fill: #008000; opacity: 0.6"/>
   </g>
   <g id="patch_25">
    <path d="M 163.699006 118.08 
L 166.767187 118.08 
L 166.767187 96.96 
L 163.699006 96.96 
z
" clip-path="url(#p5805471af6)" style="fill: #008000; opacity: 0.6"/>
   </g>
   <g id="patch_26">
    <path d="M 168.812642 118.08 
L 171.880824 118.08 
L 171.880824 96.96 
L 168.812642 96.96 
z
" clip-path="url(#p5805471af6)" style="fill: #008000; opacity: 0.6"/>
   </g>
   <g id="patch_27">
    <path d="M 173.926278 118.08 
L 176.99446 118.08 
L 176.99446 96.96 
L 173.926278 96.96 
z
" clip-path="url(#p5805471af6)" style="fill: #008000; opacity: 0.6"/>
   </g>
   <g id="patch_28">
    <path d="M 179.039915 118.08 
L 182.108097 118.08 
L 182.108097 96.96 
L 179.039915 96.96 
z
" clip-path="url(#p5805471af6)" style="fill: #008000; opacity: 0.6"/>
   </g>
   <g id="patch_29">
    <path d="M 184.153551 118.08 
L 187.221733 118.08 
L 187.221733 96.96 
L 184.153551 96.96 
z
" clip-path="url(#p5805471af6)" style="fill: #008000; opacity: 0.6"/>
   </g>
   <g id="patch_30">
    <path d="M 189.267188 118.08 
L 192.335369 118.08 
L 192.335369 96.96 
L 189.267188 96.96 
z
" clip-path="url(#p5805471af6)" style="fill: #008000; opacity: 0.6"/>
   </g>
   <g id="patch_31">
    <path d="M 194.380824 118.08 
L 197.449006 118.08 
L 197.449006 96.96 
L 194.380824 96.96 
z
" clip-path="url(#p5805471af6)" style="fill: #008000; opacity: 0.6"/>
   </g>
   <g id="patch_32">
    <path d="M 199.49446 118.08 
L 202.562642 118.08 
L 202.562642 96.96 
L 199.49446 96.96 
z
" clip-path="url(#p5805471af6)" style="fill: #008000; opacity: 0.6"/>
   </g>
   <g id="patch_33">
    <path d="M 204.608097 118.08 
L 207.676278 118.08 
L 207.676278 96.96 
L 204.608097 96.96 
z
" clip-path="url(#p5805471af6)" style="fill: #008000; opacity: 0.6"/>
   </g>
   <g id="patch_34">
    <path d="M 209.721733 118.08 
L 212.789915 118.08 
L 212.789915 118.08 
L 209.721733 118.08 
z
" clip-path="url(#p5805471af6)" style="fill: #008000; opacity: 0.6"/>
   </g>
   <g id="patch_35">
    <path d="M 214.835369 118.08 
L 217.903551 118.08 
L 217.903551 118.08 
L 214.835369 118.08 
z
" clip-path="url(#p5805471af6)" style="fill: #008000; opacity: 0.6"/>
   </g>
   <g id="patch_36">
    <path d="M 219.949006 118.08 
L 223.017188 118.08 
L 223.017188 118.08 
L 219.949006 118.08 
z
" clip-path="url(#p5805471af6)" style="fill: #008000; opacity: 0.6"/>
   </g>
   <g id="patch_37">
    <path d="M 225.062642 118.08 
L 228.130824 118.08 
L 228.130824 118.08 
L 225.062642 118.08 
z
" clip-path="url(#p5805471af6)" style="fill: #008000; opacity: 0.6"/>
   </g>
   <g id="patch_38">
    <path d="M 230.176278 118.08 
L 233.24446 118.08 
L 233.24446 118.08 
L 230.176278 118.08 
z
" clip-path="url(#p5805471af6)" style="fill: #008000; opacity: 0.6"/>
   </g>
   <g id="patch_39">
    <path d="M 235.289915 118.08 
L 238.358097 118.08 
L 238.358097 118.08 
L 235.289915 118.08 
z
" clip-path="url(#p5805471af6)" style="fill: #008000; opacity: 0.6"/>
   </g>
   <g id="patch_40">
    <path d="M 240.403551 118.08 
L 243.471733 118.08 
L 243.471733 118.08 
L 240.403551 118.08 
z
" clip-path="url(#p5805471af6)" style="fill: #008000; opacity: 0.6"/>
   </g>
   <g id="patch_41">
    <path d="M 245.517188 118.08 
L 248.585369 118.08 
L 248.585369 118.08 
L 245.517188 118.08 
z
" clip-path="url(#p5805471af6)" style="fill: #008000; opacity: 0.6"/>
   </g>
   <g id="patch_42">
    <path d="M 250.630824 118.08 
L 253.699006 118.08 
L 253.699006 118.08 
L 250.630824 118.08 
z
" clip-path="url(#p5805471af6)" style="fill: #008000; opacity: 0.6"/>
   </g>
   <g id="patch_43">
    <path d="M 255.74446 118.08 
L 258.812642 118.08 
L 258.812642 118.08 
L 255.74446 118.08 
z
" clip-path="url(#p5805471af6)" style="fill: #008000; opacity: 0.6"/>
   </g>
   <g id="patch_44">
    <path d="M 260.858097 118.08 
L 263.926278 118.08 
L 263.926278 96.96 
L 260.858097 96.96 
z
" clip-path="url(#p5805471af6)" style="fill: #008000; opacity: 0.6"/>
   </g>
   <g id="patch_45">
    <path d="M 265.971733 118.08 
L 269.039915 118.08 
L 269.039915 96.96 
L 265.971733 96.96 
z
" clip-path="url(#p5805471af6)" style="fill: #008000; opacity: 0.6"/>
   </g>
   <g id="patch_46">
    <path d="M 271.085369 118.08 
L 274.153551 118.08 
L 274.153551 96.96 
L 271.085369 96.96 
z
" clip-path="url(#p5805471af6)" style="fill: #008000; opacity: 0.6"/>
   </g>
   <g id="patch_47">
    <path d="M 276.199006 118.08 
L 279.267188 118.08 
L 279.267188 96.96 
L 276.199006 96.96 
z
" clip-path="url(#p5805471af6)" style="fill: #008000; opacity: 0.6"/>
   </g>
   <g id="patch_48">
    <path d="M 281.312642 118.08 
L 284.380824 118.08 
L 284.380824 96.96 
L 281.312642 96.96 
z
" clip-path="url(#p5805471af6)" style="fill: #008000; opacity: 0.6"/>
   </g>
   <g id="patch_49">
    <path d="M 286.426278 118.08 
L 289.49446 118.08 
L 289.49446 96.96 
L 286.426278 96.96 
z
" clip-path="url(#p5805471af6)" style="fill: #008000; opacity: 0.6"/>
   </g>
   <g id="patch_50">
    <path d="M 291.539915 118.08 
L 294.608097 118.08 
L 294.608097 96.96 
L 291.539915 96.96 
z
" clip-path="url(#p5805471af6)" style="fill: #008000; opacity: 0.6"/>
   </g>
   <g id="patch_51">
    <path d="M 296.653551 118.08 
L 299.721733 118.08 
L 299.721733 96.96 
L 296.653551 96.96 
z
" clip-path="url(#p5805471af6)" style="fill: #008000; opacity: 0.6"/>
   </g>
   <g id="patch_52">
    <path d="M 301.767187 118.08 
L 304.835369 118.08 
L 304.835369 96.96 
L 301.767187 96.96 
z
" clip-path="url(#p5805471af6)" style="fill: #008000; opacity: 0.6"/>
   </g>
   <g id="patch_53">
    <path d="M 51.199006 118.08 
L 54.267188 118.08 
L 54.267188 118.08 
L 51.199006 118.08 
z
" clip-path="url(#p5805471af6)" style="fill: #ffa500; opacity: 0.4"/>
   </g>
   <g id="patch_54">
    <path d="M 56.312642 118.08 
L 59.380824 118.08 
L 59.380824 118.08 
L 56.312642 118.08 
z
" clip-path="url(#p5805471af6)" style="fill: #ffa500; opacity: 0.4"/>
   </g>
   <g id="patch_55">
    <path d="M 61.426278 118.08 
L 64.49446 118.08 
L 64.49446 118.08 
L 61.426278 118.08 
z
" clip-path="url(#p5805471af6)" style="fill: #ffa500; opacity: 0.4"/>
   </g>
   <g id="patch_56">
    <path d="M 66.539915 118.08 
L 69.608097 118.08 
L 69.608097 118.08 
L 66.539915 118.08 
z
" clip-path="url(#p5805471af6)" style="fill: #ffa500; opacity: 0.4"/>
   </g>
   <g id="patch_57">
    <path d="M 71.653551 118.08 
L 74.721733 118.08 
L 74.721733 118.08 
L 71.653551 118.08 
z
" clip-path="url(#p5805471af6)" style="fill: #ffa500; opacity: 0.4"/>
   </g>
   <g id="patch_58">
    <path d="M 76.767188 118.08 
L 79.835369 118.08 
L 79.835369 118.08 
L 76.767188 118.08 
z
" clip-path="url(#p5805471af6)" style="fill: #ffa500; opacity: 0.4"/>
   </g>
   <g id="patch_59">
    <path d="M 81.880824 118.08 
L 84.949006 118.08 
L 84.949006 118.08 
L 81.880824 118.08 
z
" clip-path="url(#p5805471af6)" style="fill: #ffa500; opacity: 0.4"/>
   </g>
   <g id="patch_60">
    <path d="M 86.99446 118.08 
L 90.062642 118.08 
L 90.062642 118.08 
L 86.99446 118.08 
z
" clip-path="url(#p5805471af6)" style="fill: #ffa500; opacity: 0.4"/>
   </g>
   <g id="patch_61">
    <path d="M 92.108097 118.08 
L 95.176278 118.08 
L 95.176278 118.08 
L 92.108097 118.08 
z
" clip-path="url(#p5805471af6)" style="fill: #ffa500; opacity: 0.4"/>
   </g>
   <g id="patch_62">
    <path d="M 97.221733 118.08 
L 100.289915 118.08 
L 100.289915 118.08 
L 97.221733 118.08 
z
" clip-path="url(#p5805471af6)" style="fill: #ffa500; opacity: 0.4"/>
   </g>
   <g id="patch_63">
    <path d="M 102.335369 118.08 
L 105.403551 118.08 
L 105.403551 118.08 
L 102.335369 118.08 
z
" clip-path="url(#p5805471af6)" style="fill: #ffa500; opacity: 0.4"/>
   </g>
   <g id="patch_64">
    <path d="M 107.449006 118.08 
L 110.517188 118.08 
L 110.517188 65.28 
L 107.449006 65.28 
z
" clip-path="url(#p5805471af6)" style="fill: #ffa500; opacity: 0.4"/>
   </g>
   <g id="patch_65">
    <path d="M 112.562642 118.08 
L 115.630824 118.08 
L 115.630824 65.28 
L 112.562642 65.28 
z
" clip-path="url(#p5805471af6)" style="fill: #ffa500; opacity: 0.4"/>
   </g>
   <g id="patch_66">
    <path d="M 117.676278 118.08 
L 120.74446 118.08 
L 120.74446 65.28 
L 117.676278 65.28 
z
" clip-path="url(#p5805471af6)" style="fill: #ffa500; opacity: 0.4"/>
   </g>
   <g id="patch_67">
    <path d="M 122.789915 118.08 
L 125.858097 118.08 
L 125.858097 65.28 
L 122.789915 65.28 
z
" clip-path="url(#p5805471af6)" style="fill: #ffa500; opacity: 0.4"/>
   </g>
   <g id="patch_68">
    <path d="M 127.903551 118.08 
L 130.971733 118.08 
L 130.971733 65.28 
L 127.903551 65.28 
z
" clip-path="url(#p5805471af6)" style="fill: #ffa500; opacity: 0.4"/>
   </g>
   <g id="patch_69">
    <path d="M 133.017188 118.08 
L 136.085369 118.08 
L 136.085369 65.28 
L 133.017188 65.28 
z
" clip-path="url(#p5805471af6)" style="fill: #ffa500; opacity: 0.4"/>
   </g>
   <g id="patch_70">
    <path d="M 138.130824 118.08 
L 141.199006 118.08 
L 141.199006 65.28 
L 138.130824 65.28 
z
" clip-path="url(#p5805471af6)" style="fill: #ffa500; opacity: 0.4"/>
   </g>
   <g id="patch_71">
    <path d="M 143.24446 118.08 
L 146.312642 118.08 
L 146.312642 65.28 
L 143.24446 65.28 
z
" clip-path="url(#p5805471af6)" style="fill: #ffa500; opacity: 0.4"/>
   </g>
   <g id="patch_72">
    <path d="M 148.358097 118.08 
L 151.426278 118.08 
L 151.426278 65.28 
L 148.358097 65.28 
z
" clip-path="url(#p5805471af6)" style="fill: #ffa500; opacity: 0.4"/>
   </g>
   <g id="patch_73">
    <path d="M 153.471733 118.08 
L 156.539915 118.08 
L 156.539915 65.28 
L 153.471733 65.28 
z
" clip-path="url(#p5805471af6)" style="fill: #ffa500; opacity: 0.4"/>
   </g>
   <g id="patch_74">
    <path d="M 158.585369 118.08 
L 161.653551 118.08 
L 161.653551 118.08 
L 158.585369 118.08 
z
" clip-path="url(#p5805471af6)" style="fill: #ffa500; opacity: 0.4"/>
   </g>
   <g id="patch_75">
    <path d="M 163.699006 118.08 
L 166.767187 118.08 
L 166.767187 118.08 
L 163.699006 118.08 
z
" clip-path="url(#p5805471af6)" style="fill: #ffa500; opacity: 0.4"/>
   </g>
   <g id="patch_76">
    <path d="M 168.812642 118.08 
L 171.880824 118.08 
L 171.880824 118.08 
L 168.812642 118.08 
z
" clip-path="url(#p5805471af6)" style="fill: #ffa500; opacity: 0.4"/>
   </g>
   <g id="patch_77">
    <path d="M 173.926278 118.08 
L 176.99446 118.08 
L 176.99446 118.08 
L 173.926278 118.08 
z
" clip-path="url(#p5805471af6)" style="fill: #ffa500; opacity: 0.4"/>
   </g>
   <g id="patch_78">
    <path d="M 179.039915 118.08 
L 182.108097 118.08 
L 182.108097 118.08 
L 179.039915 118.08 
z
" clip-path="url(#p5805471af6)" style="fill: #ffa500; opacity: 0.4"/>
   </g>
   <g id="patch_79">
    <path d="M 184.153551 118.08 
L 187.221733 118.08 
L 187.221733 118.08 
L 184.153551 118.08 
z
" clip-path="url(#p5805471af6)" style="fill: #ffa500; opacity: 0.4"/>
   </g>
   <g id="patch_80">
    <path d="M 189.267188 118.08 
L 192.335369 118.08 
L 192.335369 118.08 
L 189.267188 118.08 
z
" clip-path="url(#p5805471af6)" style="fill: #ffa500; opacity: 0.4"/>
   </g>
   <g id="patch_81">
    <path d="M 194.380824 118.08 
L 197.449006 118.08 
L 197.449006 118.08 
L 194.380824 118.08 
z
" clip-path="url(#p5805471af6)" style="fill: #ffa500; opacity: 0.4"/>
   </g>
   <g id="patch_82">
    <path d="M 199.49446 118.08 
L 202.562642 118.08 
L 202.562642 118.08 
L 199.49446 118.08 
z
" clip-path="url(#p5805471af6)" style="fill: #ffa500; opacity: 0.4"/>
   </g>
   <g id="patch_83">
    <path d="M 204.608097 118.08 
L 207.676278 118.08 
L 207.676278 118.08 
L 204.608097 118.08 
z
" clip-path="url(#p5805471af6)" style="fill: #ffa500; opacity: 0.4"/>
   </g>
   <g id="patch_84">
    <path d="M 209.721733 118.08 
L 212.789915 118.08 
L 212.789915 118.08 
L 209.721733 118.08 
z
" clip-path="url(#p5805471af6)" style="fill: #ffa500; opacity: 0.4"/>
   </g>
   <g id="patch_85">
    <path d="M 214.835369 118.08 
L 217.903551 118.08 
L 217.903551 118.08 
L 214.835369 118.08 
z
" clip-path="url(#p5805471af6)" style="fill: #ffa500; opacity: 0.4"/>
   </g>
   <g id="patch_86">
    <path d="M 219.949006 118.08 
L 223.017188 118.08 
L 223.017188 118.08 
L 219.949006 118.08 
z
" clip-path="url(#p5805471af6)" style="fill: #ffa500; opacity: 0.4"/>
   </g>
   <g id="patch_87">
    <path d="M 225.062642 118.08 
L 228.130824 118.08 
L 228.130824 118.08 
L 225.062642 118.08 
z
" clip-path="url(#p5805471af6)" style="fill: #ffa500; opacity: 0.4"/>
   </g>
   <g id="patch_88">
    <path d="M 230.176278 118.08 
L 233.24446 118.08 
L 233.24446 118.08 
L 230.176278 118.08 
z
" clip-path="url(#p5805471af6)" style="fill: #ffa500; opacity: 0.4"/>
   </g>
   <g id="patch_89">
    <path d="M 235.289915 118.08 
L 238.358097 118.08 
L 238.358097 118.08 
L 235.289915 118.08 
z
" clip-path="url(#p5805471af6)" style="fill: #ffa500; opacity: 0.4"/>
   </g>
   <g id="patch_90">
    <path d="M 240.403551 118.08 
L 243.471733 118.08 
L 243.471733 118.08 
L 240.403551 118.08 
z
" clip-path="url(#p5805471af6)" style="fill: #ffa500; opacity: 0.4"/>
   </g>
   <g id="patch_91">
    <path d="M 245.517188 118.08 
L 248.585369 118.08 
L 248.585369 118.08 
L 245.517188 118.08 
z
" clip-path="url(#p5805471af6)" style="fill: #ffa500; opacity: 0.4"/>
   </g>
   <g id="patch_92">
    <path d="M 250.630824 118.08 
L 253.699006 118.08 
L 253.699006 118.08 
L 250.630824 118.08 
z
" clip-path="url(#p5805471af6)" style="fill: #ffa500; opacity: 0.4"/>
   </g>
   <g id="patch_93">
    <path d="M 255.74446 118.08 
L 258.812642 118.08 
L 258.812642 118.08 
L 255.74446 118.08 
z
" clip-path="url(#p5805471af6)" style="fill: #ffa500; opacity: 0.4"/>
   </g>
   <g id="patch_94">
    <path d="M 260.858097 118.08 
L 263.926278 118.08 
L 263.926278 118.08 
L 260.858097 118.08 
z
" clip-path="url(#p5805471af6)" style="fill: #ffa500; opacity: 0.4"/>
   </g>
   <g id="patch_95">
    <path d="M 265.971733 118.08 
L 269.039915 118.08 
L 269.039915 118.08 
L 265.971733 118.08 
z
" clip-path="url(#p5805471af6)" style="fill: #ffa500; opacity: 0.4"/>
   </g>
   <g id="patch_96">
    <path d="M 271.085369 118.08 
L 274.153551 118.08 
L 274.153551 118.08 
L 271.085369 118.08 
z
" clip-path="url(#p5805471af6)" style="fill: #ffa500; opacity: 0.4"/>
   </g>
   <g id="patch_97">
    <path d="M 276.199006 118.08 
L 279.267188 118.08 
L 279.267188 118.08 
L 276.199006 118.08 
z
" clip-path="url(#p5805471af6)" style="fill: #ffa500; opacity: 0.4"/>
   </g>
   <g id="patch_98">
    <path d="M 281.312642 118.08 
L 284.380824 118.08 
L 284.380824 118.08 
L 281.312642 118.08 
z
" clip-path="url(#p5805471af6)" style="fill: #ffa500; opacity: 0.4"/>
   </g>
   <g id="patch_99">
    <path d="M 286.426278 118.08 
L 289.49446 118.08 
L 289.49446 118.08 
L 286.426278 118.08 
z
" clip-path="url(#p5805471af6)" style="fill: #ffa500; opacity: 0.4"/>
   </g>
   <g id="patch_100">
    <path d="M 291.539915 118.08 
L 294.608097 118.08 
L 294.608097 118.08 
L 291.539915 118.08 
z
" clip-path="url(#p5805471af6)" style="fill: #ffa500; opacity: 0.4"/>
   </g>
   <g id="patch_101">
    <path d="M 296.653551 118.08 
L 299.721733 118.08 
L 299.721733 118.08 
L 296.653551 118.08 
z
" clip-path="url(#p5805471af6)" style="fill: #ffa500; opacity: 0.4"/>
   </g>
   <g id="patch_102">
    <path d="M 301.767187 118.08 
L 304.835369 118.08 
L 304.835369 118.08 
L 301.767187 118.08 
z
" clip-path="url(#p5805471af6)" style="fill: #ffa500; opacity: 0.4"/>
   </g>
   <g id="patch_103">
    <path d="M 51.199006 118.08 
L 54.267188 118.08 
L 54.267188 33.6 
L 51.199006 33.6 
z
" clip-path="url(#p5805471af6)" style="fill: #ff0000; opacity: 0.9"/>
   </g>
   <g id="patch_104">
    <path d="M 56.312642 118.08 
L 59.380824 118.08 
L 59.380824 118.08 
L 56.312642 118.08 
z
" clip-path="url(#p5805471af6)" style="fill: #ff0000; opacity: 0.9"/>
   </g>
   <g id="patch_105">
    <path d="M 61.426278 118.08 
L 64.49446 118.08 
L 64.49446 118.08 
L 61.426278 118.08 
z
" clip-path="url(#p5805471af6)" style="fill: #ff0000; opacity: 0.9"/>
   </g>
   <g id="patch_106">
    <path d="M 66.539915 118.08 
L 69.608097 118.08 
L 69.608097 118.08 
L 66.539915 118.08 
z
" clip-path="url(#p5805471af6)" style="fill: #ff0000; opacity: 0.9"/>
   </g>
   <g id="patch_107">
    <path d="M 71.653551 118.08 
L 74.721733 118.08 
L 74.721733 118.08 
L 71.653551 118.08 
z
" clip-path="url(#p5805471af6)" style="fill: #ff0000; opacity: 0.9"/>
   </g>
   <g id="patch_108">
    <path d="M 76.767188 118.08 
L 79.835369 118.08 
L 79.835369 118.08 
L 76.767188 118.08 
z
" clip-path="url(#p5805471af6)" style="fill: #ff0000; opacity: 0.9"/>
   </g>
   <g id="patch_109">
    <path d="M 81.880824 118.08 
L 84.949006 118.08 
L 84.949006 118.08 
L 81.880824 118.08 
z
" clip-path="url(#p5805471af6)" style="fill: #ff0000; opacity: 0.9"/>
   </g>
   <g id="patch_110">
    <path d="M 86.99446 118.08 
L 90.062642 118.08 
L 90.062642 118.08 
L 86.99446 118.08 
z
" clip-path="url(#p5805471af6)" style="fill: #ff0000; opacity: 0.9"/>
   </g>
   <g id="patch_111">
    <path d="M 92.108097 118.08 
L 95.176278 118.08 
L 95.176278 118.08 
L 92.108097 118.08 
z
" clip-path="url(#p5805471af6)" style="fill: #ff0000; opacity: 0.9"/>
   </g>
   <g id="patch_112">
    <path d="M 97.221733 118.08 
L 100.289915 118.08 
L 100.289915 118.08 
L 97.221733 118.08 
z
" clip-path="url(#p5805471af6)" style="fill: #ff0000; opacity: 0.9"/>
   </g>
   <g id="patch_113">
    <path d="M 102.335369 118.08 
L 105.403551 118.08 
L 105.403551 118.08 
L 102.335369 118.08 
z
" clip-path="url(#p5805471af6)" style="fill: #ff0000; opacity: 0.9"/>
   </g>
   <g id="patch_114">
    <path d="M 107.449006 118.08 
L 110.517188 118.08 
L 110.517188 118.08 
L 107.449006 118.08 
z
" clip-path="url(#p5805471af6)" style="fill: #ff0000; opacity: 0.9"/>
   </g>
   <g id="patch_115">
    <path d="M 112.562642 118.08 
L 115.630824 118.08 
L 115.630824 118.08 
L 112.562642 118.08 
z
" clip-path="url(#p5805471af6)" style="fill: #ff0000; opacity: 0.9"/>
   </g>
   <g id="patch_116">
    <path d="M 117.676278 118.08 
L 120.74446 118.08 
L 120.74446 118.08 
L 117.676278 118.08 
z
" clip-path="url(#p5805471af6)" style="fill: #ff0000; opacity: 0.9"/>
   </g>
   <g id="patch_117">
    <path d="M 122.789915 118.08 
L 125.858097 118.08 
L 125.858097 118.08 
L 122.789915 118.08 
z
" clip-path="url(#p5805471af6)" style="fill: #ff0000; opacity: 0.9"/>
   </g>
   <g id="patch_118">
    <path d="M 127.903551 118.08 
L 130.971733 118.08 
L 130.971733 118.08 
L 127.903551 118.08 
z
" clip-path="url(#p5805471af6)" style="fill: #ff0000; opacity: 0.9"/>
   </g>
   <g id="patch_119">
    <path d="M 133.017188 118.08 
L 136.085369 118.08 
L 136.085369 118.08 
L 133.017188 118.08 
z
" clip-path="url(#p5805471af6)" style="fill: #ff0000; opacity: 0.9"/>
   </g>
   <g id="patch_120">
    <path d="M 138.130824 118.08 
L 141.199006 118.08 
L 141.199006 118.08 
L 138.130824 118.08 
z
" clip-path="url(#p5805471af6)" style="fill: #ff0000; opacity: 0.9"/>
   </g>
   <g id="patch_121">
    <path d="M 143.24446 118.08 
L 146.312642 118.08 
L 146.312642 118.08 
L 143.24446 118.08 
z
" clip-path="url(#p5805471af6)" style="fill: #ff0000; opacity: 0.9"/>
   </g>
   <g id="patch_122">
    <path d="M 148.358097 118.08 
L 151.426278 118.08 
L 151.426278 118.08 
L 148.358097 118.08 
z
" clip-path="url(#p5805471af6)" style="fill: #ff0000; opacity: 0.9"/>
   </g>
   <g id="patch_123">
    <path d="M 153.471733 118.08 
L 156.539915 118.08 
L 156.539915 118.08 
L 153.471733 118.08 
z
" clip-path="url(#p5805471af6)" style="fill: #ff0000; opacity: 0.9"/>
   </g>
   <g id="patch_124">
    <path d="M 158.585369 118.08 
L 161.653551 118.08 
L 161.653551 118.08 
L 158.585369 118.08 
z
" clip-path="url(#p5805471af6)" style="fill: #ff0000; opacity: 0.9"/>
   </g>
   <g id="patch_125">
    <path d="M 163.699006 118.08 
L 166.767187 118.08 
L 166.767187 118.08 
L 163.699006 118.08 
z
" clip-path="url(#p5805471af6)" style="fill: #ff0000; opacity: 0.9"/>
   </g>
   <g id="patch_126">
    <path d="M 168.812642 118.08 
L 171.880824 118.08 
L 171.880824 118.08 
L 168.812642 118.08 
z
" clip-path="url(#p5805471af6)" style="fill: #ff0000; opacity: 0.9"/>
   </g>
   <g id="patch_127">
    <path d="M 173.926278 118.08 
L 176.99446 118.08 
L 176.99446 118.08 
L 173.926278 118.08 
z
" clip-path="url(#p5805471af6)" style="fill: #ff0000; opacity: 0.9"/>
   </g>
   <g id="patch_128">
    <path d="M 179.039915 118.08 
L 182.108097 118.08 
L 182.108097 118.08 
L 179.039915 118.08 
z
" clip-path="url(#p5805471af6)" style="fill: #ff0000; opacity: 0.9"/>
   </g>
   <g id="patch_129">
    <path d="M 184.153551 118.08 
L 187.221733 118.08 
L 187.221733 118.08 
L 184.153551 118.08 
z
" clip-path="url(#p5805471af6)" style="fill: #ff0000; opacity: 0.9"/>
   </g>
   <g id="patch_130">
    <path d="M 189.267188 118.08 
L 192.335369 118.08 
L 192.335369 118.08 
L 189.267188 118.08 
z
" clip-path="url(#p5805471af6)" style="fill: #ff0000; opacity: 0.9"/>
   </g>
   <g id="patch_131">
    <path d="M 194.380824 118.08 
L 197.449006 118.08 
L 197.449006 118.08 
L 194.380824 118.08 
z
" clip-path="url(#p5805471af6)" style="fill: #ff0000; opacity: 0.9"/>
   </g>
   <g id="patch_132">
    <path d="M 199.49446 118.08 
L 202.562642 118.08 
L 202.562642 118.08 
L 199.49446 118.08 
z
" clip-path="url(#p5805471af6)" style="fill: #ff0000; opacity: 0.9"/>
   </g>
   <g id="patch_133">
    <path d="M 204.608097 118.08 
L 207.676278 118.08 
L 207.676278 118.08 
L 204.608097 118.08 
z
" clip-path="url(#p5805471af6)" style="fill: #ff0000; opacity: 0.9"/>
   </g>
   <g id="patch_134">
    <path d="M 209.721733 118.08 
L 212.789915 118.08 
L 212.789915 33.6 
L 209.721733 33.6 
z
" clip-path="url(#p5805471af6)" style="fill: #ff0000; opacity: 0.9"/>
   </g>
   <g id="patch_135">
    <path d="M 214.835369 118.08 
L 217.903551 118.08 
L 217.903551 33.6 
L 214.835369 33.6 
z
" clip-path="url(#p5805471af6)" style="fill: #ff0000; opacity: 0.9"/>
   </g>
   <g id="patch_136">
    <path d="M 219.949006 118.08 
L 223.017188 118.08 
L 223.017188 33.6 
L 219.949006 33.6 
z
" clip-path="url(#p5805471af6)" style="fill: #ff0000; opacity: 0.9"/>
   </g>
   <g id="patch_137">
    <path d="M 225.062642 118.08 
L 228.130824 118.08 
L 228.130824 33.6 
L 225.062642 33.6 
z
" clip-path="url(#p5805471af6)" style="fill: #ff0000; opacity: 0.9"/>
   </g>
   <g id="patch_138">
    <path d="M 230.176278 118.08 
L 233.24446 118.08 
L 233.24446 33.6 
L 230.176278 33.6 
z
" clip-path="url(#p5805471af6)" style="fill: #ff0000; opacity: 0.9"/>
   </g>
   <g id="patch_139">
    <path d="M 235.289915 118.08 
L 238.358097 118.08 
L 238.358097 33.6 
L 235.289915 33.6 
z
" clip-path="url(#p5805471af6)" style="fill: #ff0000; opacity: 0.9"/>
   </g>
   <g id="patch_140">
    <path d="M 240.403551 118.08 
L 243.471733 118.08 
L 243.471733 33.6 
L 240.403551 33.6 
z
" clip-path="url(#p5805471af6)" style="fill: #ff0000; opacity: 0.9"/>
   </g>
   <g id="patch_141">
    <path d="M 245.517188 118.08 
L 248.585369 118.08 
L 248.585369 33.6 
L 245.517188 33.6 
z
" clip-path="url(#p5805471af6)" style="fill: #ff0000; opacity: 0.9"/>
   </g>
   <g id="patch_142">
    <path d="M 250.630824 118.08 
L 253.699006 118.08 
L 253.699006 33.6 
L 250.630824 33.6 
z
" clip-path="url(#p5805471af6)" style="fill: #ff0000; opacity: 0.9"/>
   </g>
   <g id="patch_143">
    <path d="M 255.74446 118.08 
L 258.812642 118.08 
L 258.812642 33.6 
L 255.74446 33.6 
z
" clip-path="url(#p5805471af6)" style="fill: #ff0000; opacity: 0.9"/>
   </g>
   <g id="patch_144">
    <path d="M 260.858097 118.08 
L 263.926278 118.08 
L 263.926278 118.08 
L 260.858097 118.08 
z
" clip-path="url(#p5805471af6)" style="fill: #ff0000; opacity: 0.9"/>
   </g>
   <g id="patch_145">
    <path d="M 265.971733 118.08 
L 269.039915 118.08 
L 269.039915 118.08 
L 265.971733 118.08 
z
" clip-path="url(#p5805471af6)" style="fill: #ff0000; opacity: 0.9"/>
   </g>
   <g id="patch_146">
    <path d="M 271.085369 118.08 
L 274.153551 118.08 
L 274.153551 118.08 
L 271.085369 118.08 
z
" clip-path="url(#p5805471af6)" style="fill: #ff0000; opacity: 0.9"/>
   </g>
   <g id="patch_147">
    <path d="M 276.199006 118.08 
L 279.267188 118.08 
L 279.267188 118.08 
L 276.199006 118.08 
z
" clip-path="url(#p5805471af6)" style="fill: #ff0000; opacity: 0.9"/>
   </g>
   <g id="patch_148">
    <path d="M 281.312642 118.08 
L 284.380824 118.08 
L 284.380824 118.08 
L 281.312642 118.08 
z
" clip-path="url(#p5805471af6)" style="fill: #ff0000; opacity: 0.9"/>
   </g>
   <g id="patch_149">
    <path d="M 286.426278 118.08 
L 289.49446 118.08 
L 289.49446 118.08 
L 286.426278 118.08 
z
" clip-path="url(#p5805471af6)" style="fill: #ff0000; opacity: 0.9"/>
   </g>
   <g id="patch_150">
    <path d="M 291.539915 118.08 
L 294.608097 118.08 
L 294.608097 118.08 
L 291.539915 118.08 
z
" clip-path="url(#p5805471af6)" style="fill: #ff0000; opacity: 0.9"/>
   </g>
   <g id="patch_151">
    <path d="M 296.653551 118.08 
L 299.721733 118.08 
L 299.721733 118.08 
L 296.653551 118.08 
z
" clip-path="url(#p5805471af6)" style="fill: #ff0000; opacity: 0.9"/>
   </g>
   <g id="patch_152">
    <path d="M 301.767187 118.08 
L 304.835369 118.08 
L 304.835369 118.08 
L 301.767187 118.08 
z
" clip-path="url(#p5805471af6)" style="fill: #ff0000; opacity: 0.9"/>
   </g>
   <g id="matplotlib.axis_1">
    <g id="xtick_1">
     <g id="line2d_1">
      <path d="M 52.733097 118.08 
L 52.733097 7.2 
" clip-path="url(#p5805471af6)" style="fill: none; stroke-dasharray: 3.2,0.8,0.5,0.8; stroke-dashoffset: 0; stroke: #b0b0b0; stroke-width: 0.5"/>
     </g>
     <g id="line2d_2">
      <defs>
       <path id="m4835443ccc" d="M 0 0 
L 0 3.5 
" style="stroke: #000000; stroke-width: 0.8"/>
      </defs>
      <g>
       <use xlink:href="#m4835443ccc" x="52.733097" y="118.08" style="stroke: #000000; stroke-width: 0.8"/>
      </g>
     </g>
     <g id="text_1">
      <!-- 0 -->
      <g transform="translate(49.551847 132.678438) scale(0.1 -0.1)">
       <defs>
        <path id="DejaVuSans-30" d="M 2034 4250 
Q 1547 4250 1301 3770 
Q 1056 3291 1056 2328 
Q 1056 1369 1301 889 
Q 1547 409 2034 409 
Q 2525 409 2770 889 
Q 3016 1369 3016 2328 
Q 3016 3291 2770 3770 
Q 2525 4250 2034 4250 
z
M 2034 4750 
Q 2819 4750 3233 4129 
Q 3647 3509 3647 2328 
Q 3647 1150 3233 529 
Q 2819 -91 2034 -91 
Q 1250 -91 836 529 
Q 422 1150 422 2328 
Q 422 3509 836 4129 
Q 1250 4750 2034 4750 
z
" transform="scale(0.015625)"/>
       </defs>
       <use xlink:href="#DejaVuSans-30"/>
      </g>
     </g>
    </g>
    <g id="xtick_2">
     <g id="line2d_3">
      <path d="M 103.86946 118.08 
L 103.86946 7.2 
" clip-path="url(#p5805471af6)" style="fill: none; stroke-dasharray: 3.2,0.8,0.5,0.8; stroke-dashoffset: 0; stroke: #b0b0b0; stroke-width: 0.5"/>
     </g>
     <g id="line2d_4">
      <g>
       <use xlink:href="#m4835443ccc" x="103.86946" y="118.08" style="stroke: #000000; stroke-width: 0.8"/>
      </g>
     </g>
     <g id="text_2">
      <!-- 10 -->
      <g transform="translate(97.50696 132.678438) scale(0.1 -0.1)">
       <defs>
        <path id="DejaVuSans-31" d="M 794 531 
L 1825 531 
L 1825 4091 
L 703 3866 
L 703 4441 
L 1819 4666 
L 2450 4666 
L 2450 531 
L 3481 531 
L 3481 0 
L 794 0 
L 794 531 
z
" transform="scale(0.015625)"/>
       </defs>
       <use xlink:href="#DejaVuSans-31"/>
       <use xlink:href="#DejaVuSans-30" x="63.623047"/>
      </g>
     </g>
    </g>
    <g id="xtick_3">
     <g id="line2d_5">
      <path d="M 155.005824 118.08 
L 155.005824 7.2 
" clip-path="url(#p5805471af6)" style="fill: none; stroke-dasharray: 3.2,0.8,0.5,0.8; stroke-dashoffset: 0; stroke: #b0b0b0; stroke-width: 0.5"/>
     </g>
     <g id="line2d_6">
      <g>
       <use xlink:href="#m4835443ccc" x="155.005824" y="118.08" style="stroke: #000000; stroke-width: 0.8"/>
      </g>
     </g>
     <g id="text_3">
      <!-- 20 -->
      <g transform="translate(148.643324 132.678438) scale(0.1 -0.1)">
       <defs>
        <path id="DejaVuSans-32" d="M 1228 531 
L 3431 531 
L 3431 0 
L 469 0 
L 469 531 
Q 828 903 1448 1529 
Q 2069 2156 2228 2338 
Q 2531 2678 2651 2914 
Q 2772 3150 2772 3378 
Q 2772 3750 2511 3984 
Q 2250 4219 1831 4219 
Q 1534 4219 1204 4116 
Q 875 4013 500 3803 
L 500 4441 
Q 881 4594 1212 4672 
Q 1544 4750 1819 4750 
Q 2544 4750 2975 4387 
Q 3406 4025 3406 3419 
Q 3406 3131 3298 2873 
Q 3191 2616 2906 2266 
Q 2828 2175 2409 1742 
Q 1991 1309 1228 531 
z
" transform="scale(0.015625)"/>
       </defs>
       <use xlink:href="#DejaVuSans-32"/>
       <use xlink:href="#DejaVuSans-30" x="63.623047"/>
      </g>
     </g>
    </g>
    <g id="xtick_4">
     <g id="line2d_7">
      <path d="M 206.142188 118.08 
L 206.142188 7.2 
" clip-path="url(#p5805471af6)" style="fill: none; stroke-dasharray: 3.2,0.8,0.5,0.8; stroke-dashoffset: 0; stroke: #b0b0b0; stroke-width: 0.5"/>
     </g>
     <g id="line2d_8">
      <g>
       <use xlink:href="#m4835443ccc" x="206.142188" y="118.08" style="stroke: #000000; stroke-width: 0.8"/>
      </g>
     </g>
     <g id="text_4">
      <!-- 30 -->
      <g transform="translate(199.779687 132.678438) scale(0.1 -0.1)">
       <defs>
        <path id="DejaVuSans-33" d="M 2597 2516 
Q 3050 2419 3304 2112 
Q 3559 1806 3559 1356 
Q 3559 666 3084 287 
Q 2609 -91 1734 -91 
Q 1441 -91 1130 -33 
Q 819 25 488 141 
L 488 750 
Q 750 597 1062 519 
Q 1375 441 1716 441 
Q 2309 441 2620 675 
Q 2931 909 2931 1356 
Q 2931 1769 2642 2001 
Q 2353 2234 1838 2234 
L 1294 2234 
L 1294 2753 
L 1863 2753 
Q 2328 2753 2575 2939 
Q 2822 3125 2822 3475 
Q 2822 3834 2567 4026 
Q 2313 4219 1838 4219 
Q 1578 4219 1281 4162 
Q 984 4106 628 3988 
L 628 4550 
Q 988 4650 1302 4700 
Q 1616 4750 1894 4750 
Q 2613 4750 3031 4423 
Q 3450 4097 3450 3541 
Q 3450 3153 3228 2886 
Q 3006 2619 2597 2516 
z
" transform="scale(0.015625)"/>
       </defs>
       <use xlink:href="#DejaVuSans-33"/>
       <use xlink:href="#DejaVuSans-30" x="63.623047"/>
      </g>
     </g>
    </g>
    <g id="xtick_5">
     <g id="line2d_9">
      <path d="M 257.278551 118.08 
L 257.278551 7.2 
" clip-path="url(#p5805471af6)" style="fill: none; stroke-dasharray: 3.2,0.8,0.5,0.8; stroke-dashoffset: 0; stroke: #b0b0b0; stroke-width: 0.5"/>
     </g>
     <g id="line2d_10">
      <g>
       <use xlink:href="#m4835443ccc" x="257.278551" y="118.08" style="stroke: #000000; stroke-width: 0.8"/>
      </g>
     </g>
     <g id="text_5">
      <!-- 40 -->
      <g transform="translate(250.916051 132.678438) scale(0.1 -0.1)">
       <defs>
        <path id="DejaVuSans-34" d="M 2419 4116 
L 825 1625 
L 2419 1625 
L 2419 4116 
z
M 2253 4666 
L 3047 4666 
L 3047 1625 
L 3713 1625 
L 3713 1100 
L 3047 1100 
L 3047 0 
L 2419 0 
L 2419 1100 
L 313 1100 
L 313 1709 
L 2253 4666 
z
" transform="scale(0.015625)"/>
       </defs>
       <use xlink:href="#DejaVuSans-34"/>
       <use xlink:href="#DejaVuSans-30" x="63.623047"/>
      </g>
     </g>
    </g>
    <g id="xtick_6">
     <g id="line2d_11">
      <path d="M 308.414915 118.08 
L 308.414915 7.2 
" clip-path="url(#p5805471af6)" style="fill: none; stroke-dasharray: 3.2,0.8,0.5,0.8; stroke-dashoffset: 0; stroke: #b0b0b0; stroke-width: 0.5"/>
     </g>
     <g id="line2d_12">
      <g>
       <use xlink:href="#m4835443ccc" x="308.414915" y="118.08" style="stroke: #000000; stroke-width: 0.8"/>
      </g>
     </g>
     <g id="text_6">
      <!-- 50 -->
      <g transform="translate(302.052415 132.678438) scale(0.1 -0.1)">
       <defs>
        <path id="DejaVuSans-35" d="M 691 4666 
L 3169 4666 
L 3169 4134 
L 1269 4134 
L 1269 2991 
Q 1406 3038 1543 3061 
Q 1681 3084 1819 3084 
Q 2600 3084 3056 2656 
Q 3513 2228 3513 1497 
Q 3513 744 3044 326 
Q 2575 -91 1722 -91 
Q 1428 -91 1123 -41 
Q 819 9 494 109 
L 494 744 
Q 775 591 1075 516 
Q 1375 441 1709 441 
Q 2250 441 2565 725 
Q 2881 1009 2881 1497 
Q 2881 1984 2565 2268 
Q 2250 2553 1709 2553 
Q 1456 2553 1204 2497 
Q 953 2441 691 2322 
L 691 4666 
z
" transform="scale(0.015625)"/>
       </defs>
       <use xlink:href="#DejaVuSans-35"/>
       <use xlink:href="#DejaVuSans-30" x="63.623047"/>
      </g>
     </g>
    </g>
   </g>
   <g id="matplotlib.axis_2">
    <g id="ytick_1">
     <g id="line2d_13">
      <path d="M 38.517188 118.08 
L 317.517187 118.08 
" clip-path="url(#p5805471af6)" style="fill: none; stroke-dasharray: 3.2,0.8,0.5,0.8; stroke-dashoffset: 0; stroke: #b0b0b0; stroke-width: 0.5"/>
     </g>
     <g id="line2d_14">
      <defs>
       <path id="m1a4c9034ec" d="M 0 0 
L -3.5 0 
" style="stroke: #000000; stroke-width: 0.8"/>
      </defs>
      <g>
       <use xlink:href="#m1a4c9034ec" x="38.517188" y="118.08" style="stroke: #000000; stroke-width: 0.8"/>
      </g>
     </g>
    </g>
    <g id="ytick_2">
     <g id="line2d_15">
      <path d="M 38.517188 65.28 
L 317.517187 65.28 
" clip-path="url(#p5805471af6)" style="fill: none; stroke-dasharray: 3.2,0.8,0.5,0.8; stroke-dashoffset: 0; stroke: #b0b0b0; stroke-width: 0.5"/>
     </g>
     <g id="line2d_16">
      <g>
       <use xlink:href="#m1a4c9034ec" x="38.517188" y="65.28" style="stroke: #000000; stroke-width: 0.8"/>
      </g>
     </g>
     <g id="text_7">
      <!-- WRN -->
      <g transform="translate(7.2 69.079219) scale(0.1 -0.1)">
       <defs>
        <path id="DejaVuSans-57" d="M 213 4666 
L 850 4666 
L 1831 722 
L 2809 4666 
L 3519 4666 
L 4500 722 
L 5478 4666 
L 6119 4666 
L 4947 0 
L 4153 0 
L 3169 4050 
L 2175 0 
L 1381 0 
L 213 4666 
z
" transform="scale(0.015625)"/>
        <path id="DejaVuSans-52" d="M 2841 2188 
Q 3044 2119 3236 1894 
Q 3428 1669 3622 1275 
L 4263 0 
L 3584 0 
L 2988 1197 
Q 2756 1666 2539 1819 
Q 2322 1972 1947 1972 
L 1259 1972 
L 1259 0 
L 628 0 
L 628 4666 
L 2053 4666 
Q 2853 4666 3247 4331 
Q 3641 3997 3641 3322 
Q 3641 2881 3436 2590 
Q 3231 2300 2841 2188 
z
M 1259 4147 
L 1259 2491 
L 2053 2491 
Q 2509 2491 2742 2702 
Q 2975 2913 2975 3322 
Q 2975 3731 2742 3939 
Q 2509 4147 2053 4147 
L 1259 4147 
z
" transform="scale(0.015625)"/>
        <path id="DejaVuSans-4e" d="M 628 4666 
L 1478 4666 
L 3547 763 
L 3547 4666 
L 4159 4666 
L 4159 0 
L 3309 0 
L 1241 3903 
L 1241 0 
L 628 0 
L 628 4666 
z
" transform="scale(0.015625)"/>
       </defs>
       <use xlink:href="#DejaVuSans-57"/>
       <use xlink:href="#DejaVuSans-52" x="98.876953"/>
       <use xlink:href="#DejaVuSans-4e" x="168.359375"/>
      </g>
     </g>
    </g>
    <g id="ytick_3">
     <g id="line2d_17">
      <path d="M 38.517188 12.48 
L 317.517187 12.48 
" clip-path="url(#p5805471af6)" style="fill: none; stroke-dasharray: 3.2,0.8,0.5,0.8; stroke-dashoffset: 0; stroke: #b0b0b0; stroke-width: 0.5"/>
     </g>
     <g id="line2d_18">
      <g>
       <use xlink:href="#m1a4c9034ec" x="38.517188" y="12.48" style="stroke: #000000; stroke-width: 0.8"/>
      </g>
     </g>
     <g id="text_8">
      <!-- URN -->
      <g transform="translate(9.76875 16.279219) scale(0.1 -0.1)">
       <defs>
        <path id="DejaVuSans-55" d="M 556 4666 
L 1191 4666 
L 1191 1831 
Q 1191 1081 1462 751 
Q 1734 422 2344 422 
Q 2950 422 3222 751 
Q 3494 1081 3494 1831 
L 3494 4666 
L 4128 4666 
L 4128 1753 
Q 4128 841 3676 375 
Q 3225 -91 2344 -91 
Q 1459 -91 1007 375 
Q 556 841 556 1753 
L 556 4666 
z
" transform="scale(0.015625)"/>
       </defs>
       <use xlink:href="#DejaVuSans-55"/>
       <use xlink:href="#DejaVuSans-52" x="73.193359"/>
       <use xlink:href="#DejaVuSans-4e" x="142.675781"/>
      </g>
     </g>
    </g>
   </g>
   <g id="line2d_19">
    <path d="M 52.733097 118.08 
L 57.846733 118.08 
L 62.960369 118.08 
L 68.074006 118.08 
L 73.187642 118.08 
L 78.301278 118.08 
L 83.414915 118.08 
L 88.528551 118.08 
L 93.642188 118.08 
L 98.755824 118.08 
L 103.86946 65.28 
L 108.983097 65.28 
L 114.096733 65.28 
L 119.210369 65.28 
L 124.324006 65.28 
L 129.437642 65.28 
L 134.551278 65.28 
L 139.664915 65.28 
L 144.778551 65.28 
L 149.892188 65.28 
L 155.005824 118.08 
L 160.11946 118.08 
L 165.233097 118.08 
L 170.346733 118.08 
L 175.460369 118.08 
L 180.574006 118.08 
L 185.687642 118.08 
L 190.801278 118.08 
L 195.914915 118.08 
L 201.028551 118.08 
L 206.142188 12.48 
L 211.255824 12.48 
L 216.36946 12.48 
L 221.483097 12.48 
L 226.596733 12.48 
L 231.710369 12.48 
L 236.824006 12.48 
L 241.937642 12.48 
L 247.051278 12.48 
L 252.164915 12.48 
L 257.278551 118.08 
L 262.392187 118.08 
L 267.505824 118.08 
L 272.61946 118.08 
L 277.733097 118.08 
L 282.846733 118.08 
L 287.960369 118.08 
L 293.074006 118.08 
L 298.187642 118.08 
L 303.301278 118.08 
" clip-path="url(#p5805471af6)" style="fill: none; stroke: #0000ff; stroke-width: 1.5; stroke-linecap: square"/>
   </g>
   <g id="patch_153">
    <path d="M 38.517188 118.08 
L 38.517188 7.2 
" style="fill: none; stroke: #000000; stroke-width: 0.8; stroke-linejoin: miter; stroke-linecap: square"/>
   </g>
   <g id="patch_154">
    <path d="M 317.517187 118.08 
L 317.517187 7.2 
" style="fill: none; stroke: #000000; stroke-width: 0.8; stroke-linejoin: miter; stroke-linecap: square"/>
   </g>
   <g id="patch_155">
    <path d="M 38.517188 118.08 
L 317.517187 118.08 
" style="fill: none; stroke: #000000; stroke-width: 0.8; stroke-linejoin: miter; stroke-linecap: square"/>
   </g>
   <g id="patch_156">
    <path d="M 38.517188 7.2 
L 317.517187 7.2 
" style="fill: none; stroke: #000000; stroke-width: 0.8; stroke-linejoin: miter; stroke-linecap: square"/>
   </g>
   <g id="legend_1">
    <g id="patch_157">
     <path d="M 61.088187 43.861756 
L 196.489734 43.861756 
Q 198.155734 43.861756 198.155734 42.195756 
L 198.155734 18.575 
Q 198.155734 16.909 196.489734 16.909 
L 61.088187 16.909 
Q 59.422187 16.909 59.422187 18.575 
L 59.422187 42.195756 
Q 59.422187 43.861756 61.088187 43.861756 
z
" style="fill: #ffffff; opacity: 0.8; stroke: #cccccc; stroke-linejoin: miter"/>
    </g>
    <g id="line2d_20">
     <path d="M 62.754188 23.654998 
L 71.084187 23.654998 
L 79.414187 23.654998 
" style="fill: none; stroke: #0000ff; stroke-width: 1.5; stroke-linecap: square"/>
    </g>
    <g id="text_9">
     <!-- EMG level -->
     <g transform="translate(86.078187 26.570498) scale(0.0833 -0.0833)">
      <defs>
       <path id="DejaVuSans-45" d="M 628 4666 
L 3578 4666 
L 3578 4134 
L 1259 4134 
L 1259 2753 
L 3481 2753 
L 3481 2222 
L 1259 2222 
L 1259 531 
L 3634 531 
L 3634 0 
L 628 0 
L 628 4666 
z
" transform="scale(0.015625)"/>
       <path id="DejaVuSans-4d" d="M 628 4666 
L 1569 4666 
L 2759 1491 
L 3956 4666 
L 4897 4666 
L 4897 0 
L 4281 0 
L 4281 4097 
L 3078 897 
L 2444 897 
L 1241 4097 
L 1241 0 
L 628 0 
L 628 4666 
z
" transform="scale(0.015625)"/>
       <path id="DejaVuSans-47" d="M 3809 666 
L 3809 1919 
L 2778 1919 
L 2778 2438 
L 4434 2438 
L 4434 434 
Q 4069 175 3628 42 
Q 3188 -91 2688 -91 
Q 1594 -91 976 548 
Q 359 1188 359 2328 
Q 359 3472 976 4111 
Q 1594 4750 2688 4750 
Q 3144 4750 3555 4637 
Q 3966 4525 4313 4306 
L 4313 3634 
Q 3963 3931 3569 4081 
Q 3175 4231 2741 4231 
Q 1884 4231 1454 3753 
Q 1025 3275 1025 2328 
Q 1025 1384 1454 906 
Q 1884 428 2741 428 
Q 3075 428 3337 486 
Q 3600 544 3809 666 
z
" transform="scale(0.015625)"/>
       <path id="DejaVuSans-20" transform="scale(0.015625)"/>
       <path id="DejaVuSans-6c" d="M 603 4863 
L 1178 4863 
L 1178 0 
L 603 0 
L 603 4863 
z
" transform="scale(0.015625)"/>
       <path id="DejaVuSans-65" d="M 3597 1894 
L 3597 1613 
L 953 1613 
Q 991 1019 1311 708 
Q 1631 397 2203 397 
Q 2534 397 2845 478 
Q 3156 559 3463 722 
L 3463 178 
Q 3153 47 2828 -22 
Q 2503 -91 2169 -91 
Q 1331 -91 842 396 
Q 353 884 353 1716 
Q 353 2575 817 3079 
Q 1281 3584 2069 3584 
Q 2775 3584 3186 3129 
Q 3597 2675 3597 1894 
z
M 3022 2063 
Q 3016 2534 2758 2815 
Q 2500 3097 2075 3097 
Q 1594 3097 1305 2825 
Q 1016 2553 972 2059 
L 3022 2063 
z
" transform="scale(0.015625)"/>
       <path id="DejaVuSans-76" d="M 191 3500 
L 800 3500 
L 1894 563 
L 2988 3500 
L 3597 3500 
L 2284 0 
L 1503 0 
L 191 3500 
z
" transform="scale(0.015625)"/>
      </defs>
      <use xlink:href="#DejaVuSans-45"/>
      <use xlink:href="#DejaVuSans-4d" x="63.183594"/>
      <use xlink:href="#DejaVuSans-47" x="149.462891"/>
      <use xlink:href="#DejaVuSans-20" x="226.953125"/>
      <use xlink:href="#DejaVuSans-6c" x="258.740234"/>
      <use xlink:href="#DejaVuSans-65" x="286.523438"/>
      <use xlink:href="#DejaVuSans-76" x="348.046875"/>
      <use xlink:href="#DejaVuSans-65" x="407.226562"/>
      <use xlink:href="#DejaVuSans-6c" x="468.75"/>
     </g>
    </g>
    <g id="patch_158">
     <path d="M 62.754188 38.797377 
L 79.414187 38.797377 
L 79.414187 32.966377 
L 62.754188 32.966377 
z
" style="fill: #008000; opacity: 0.6"/>
    </g>
    <g id="text_10">
     <!-- MOVE -->
     <g transform="translate(86.078187 38.797377) scale(0.0833 -0.0833)">
      <defs>
       <path id="DejaVuSans-4f" d="M 2522 4238 
Q 1834 4238 1429 3725 
Q 1025 3213 1025 2328 
Q 1025 1447 1429 934 
Q 1834 422 2522 422 
Q 3209 422 3611 934 
Q 4013 1447 4013 2328 
Q 4013 3213 3611 3725 
Q 3209 4238 2522 4238 
z
M 2522 4750 
Q 3503 4750 4090 4092 
Q 4678 3434 4678 2328 
Q 4678 1225 4090 567 
Q 3503 -91 2522 -91 
Q 1538 -91 948 565 
Q 359 1222 359 2328 
Q 359 3434 948 4092 
Q 1538 4750 2522 4750 
z
" transform="scale(0.015625)"/>
       <path id="DejaVuSans-56" d="M 1831 0 
L 50 4666 
L 709 4666 
L 2188 738 
L 3669 4666 
L 4325 4666 
L 2547 0 
L 1831 0 
z
" transform="scale(0.015625)"/>
      </defs>
      <use xlink:href="#DejaVuSans-4d"/>
      <use xlink:href="#DejaVuSans-4f" x="86.279297"/>
      <use xlink:href="#DejaVuSans-56" x="163.240234"/>
      <use xlink:href="#DejaVuSans-45" x="231.648438"/>
     </g>
    </g>
    <g id="patch_159">
     <path d="M 144.100542 26.570498 
L 160.760542 26.570498 
L 160.760542 20.739498 
L 144.100542 20.739498 
z
" style="fill: #ffa500; opacity: 0.4"/>
    </g>
    <g id="text_11">
     <!-- DECEL -->
     <g transform="translate(167.424542 26.570498) scale(0.0833 -0.0833)">
      <defs>
       <path id="DejaVuSans-44" d="M 1259 4147 
L 1259 519 
L 2022 519 
Q 2988 519 3436 956 
Q 3884 1394 3884 2338 
Q 3884 3275 3436 3711 
Q 2988 4147 2022 4147 
L 1259 4147 
z
M 628 4666 
L 1925 4666 
Q 3281 4666 3915 4102 
Q 4550 3538 4550 2338 
Q 4550 1131 3912 565 
Q 3275 0 1925 0 
L 628 0 
L 628 4666 
z
" transform="scale(0.015625)"/>
       <path id="DejaVuSans-43" d="M 4122 4306 
L 4122 3641 
Q 3803 3938 3442 4084 
Q 3081 4231 2675 4231 
Q 1875 4231 1450 3742 
Q 1025 3253 1025 2328 
Q 1025 1406 1450 917 
Q 1875 428 2675 428 
Q 3081 428 3442 575 
Q 3803 722 4122 1019 
L 4122 359 
Q 3791 134 3420 21 
Q 3050 -91 2638 -91 
Q 1578 -91 968 557 
Q 359 1206 359 2328 
Q 359 3453 968 4101 
Q 1578 4750 2638 4750 
Q 3056 4750 3426 4639 
Q 3797 4528 4122 4306 
z
" transform="scale(0.015625)"/>
       <path id="DejaVuSans-4c" d="M 628 4666 
L 1259 4666 
L 1259 531 
L 3531 531 
L 3531 0 
L 628 0 
L 628 4666 
z
" transform="scale(0.015625)"/>
      </defs>
      <use xlink:href="#DejaVuSans-44"/>
      <use xlink:href="#DejaVuSans-45" x="77.001953"/>
      <use xlink:href="#DejaVuSans-43" x="140.185547"/>
      <use xlink:href="#DejaVuSans-45" x="210.009766"/>
      <use xlink:href="#DejaVuSans-4c" x="273.193359"/>
     </g>
    </g>
    <g id="patch_160">
     <path d="M 144.100542 38.797377 
L 160.760542 38.797377 
L 160.760542 32.966377 
L 144.100542 32.966377 
z
" style="fill: #ff0000; opacity: 0.9"/>
    </g>
    <g id="text_12">
     <!-- STOP -->
     <g transform="translate(167.424542 38.797377) scale(0.0833 -0.0833)">
      <defs>
       <path id="DejaVuSans-53" d="M 3425 4513 
L 3425 3897 
Q 3066 4069 2747 4153 
Q 2428 4238 2131 4238 
Q 1616 4238 1336 4038 
Q 1056 3838 1056 3469 
Q 1056 3159 1242 3001 
Q 1428 2844 1947 2747 
L 2328 2669 
Q 3034 2534 3370 2195 
Q 3706 1856 3706 1288 
Q 3706 609 3251 259 
Q 2797 -91 1919 -91 
Q 1588 -91 1214 -16 
Q 841 59 441 206 
L 441 856 
Q 825 641 1194 531 
Q 1563 422 1919 422 
Q 2459 422 2753 634 
Q 3047 847 3047 1241 
Q 3047 1584 2836 1778 
Q 2625 1972 2144 2069 
L 1759 2144 
Q 1053 2284 737 2584 
Q 422 2884 422 3419 
Q 422 4038 858 4394 
Q 1294 4750 2059 4750 
Q 2388 4750 2728 4690 
Q 3069 4631 3425 4513 
z
" transform="scale(0.015625)"/>
       <path id="DejaVuSans-54" d="M -19 4666 
L 3928 4666 
L 3928 4134 
L 2272 4134 
L 2272 0 
L 1638 0 
L 1638 4134 
L -19 4134 
L -19 4666 
z
" transform="scale(0.015625)"/>
       <path id="DejaVuSans-50" d="M 1259 4147 
L 1259 2394 
L 2053 2394 
Q 2494 2394 2734 2622 
Q 2975 2850 2975 3272 
Q 2975 3691 2734 3919 
Q 2494 4147 2053 4147 
L 1259 4147 
z
M 628 4666 
L 2053 4666 
Q 2838 4666 3239 4311 
Q 3641 3956 3641 3272 
Q 3641 2581 3239 2228 
Q 2838 1875 2053 1875 
L 1259 1875 
L 1259 0 
L 628 0 
L 628 4666 
z
" transform="scale(0.015625)"/>
      </defs>
      <use xlink:href="#DejaVuSans-53"/>
      <use xlink:href="#DejaVuSans-54" x="63.476562"/>
      <use xlink:href="#DejaVuSans-4f" x="124.560547"/>
      <use xlink:href="#DejaVuSans-50" x="203.271484"/>
     </g>
    </g>
   </g>
  </g>
 </g>
 <defs>
  <clipPath id="p5805471af6">
   <rect x="38.517188" y="7.2" width="279" height="110.88"/>
  </clipPath>
 </defs>
</svg>
